PathFileType	4	(X/Y/Z)	Patient4_TMGait_0pt7_02_left_27.trc.trc
DataRate	CameraRate	NumFrames	NumMarkers	Units	OrigDataRate	OrigDataStartFrame	OrigNumFrames
85.889570552147	85.889570552147	4	33	mm	85.889570552147	89	       141
Frame#	Time	Sacral			L.Shoulder			Chest			R.Shoulder			Neck			R.ASIS			L.ASIS			R.Thigh.Superior			R.Thigh.Lateral			R.Thigh.Inferior			R.Patella			L.Thigh.Superior			L.Thigh.Lateral			L.Thigh.Inferior			L.Patella			L.Shank.Superior			L.Shank.Lateral			L.Shank.Inferior			R.Shank.Superior			R.Shank.Lateral			R.Shank.Inferior			R.Heel			R.Midfoot.Superior			R.Midfoot.Lateral			R.Toe			L.Heel			L.Midfoot.Lateral			L.Midfoot.Superior			L.Toe			L.Elbow			L.Wrist			R.Elbow			R.Wrist			
		X1	Y1	Z1	X2	Y2	Z2	X3	Y3	Z3	X4	Y4	Z4	X5	Y5	Z5	X6	Y6	Z6	X7	Y7	Z7	X8	Y8	Z8	X9	Y9	Z9	X10	Y10	Z10	X11	Y11	Z11	X12	Y12	Z12	X13	Y13	Z13	X14	Y14	Z14	X15	Y15	Z15	X16	Y16	Z16	X17	Y17	Z17	X18	Y18	Z18	X19	Y19	Z19	X20	Y20	Z20	X21	Y21	Z21	X22	Y22	Z22	X23	Y23	Z23	X24	Y24	Z24	X25	Y25	Z25	X26	Y26	Z26	X27	Y27	Z27	X28	Y28	Z28	X29	Y29	Z29	X30	Y30	Z30	X31	Y31	Z31	X32	Y32	Z32	X33	Y33	Z33	

89	31.774571428571	842.975162303612	989.674028027611	497.253399312769	1031.699522096704	1413.740134993999	311.065640156309	1129.075340023001	1345.785367468651	477.524182443953	1041.004492491659	1428.247630843774	645.525354560220	1030.520719435930	1478.380765086744	463.071332799187	1069.006248931486	930.216027970482	622.116881734678	676.429577093471	602.475628433140	219.816542656739	1144.698857781131	751.370270822310	591.517326880566	1085.167448632058	630.213911221341	651.262497616989	1174.254455019114	592.341729513736	573.884603699156	1193.567345140916	501.050411585293	582.458914766477	1085.515551137201	721.797084896170	367.130699694926	986.983701820931	615.476937625217	299.514521691491	1065.411307401793	522.559636220967	355.630820512587	1049.873776522271	438.330276649601	351.237748798950	977.186522183766	386.003357583400	343.918646009630	834.610699140535	351.909253807496	294.402237553335	812.676901154240	224.310779435065	348.853346213994	1167.203891615565	409.117333697633	588.640833688087	1099.502999716367	302.352011646951	649.303221689486	1146.775912429141	208.956648611810	588.181587113104	1019.490665319671	43.553902353577	556.244360968802	1190.494724112464	98.849491691923	596.164176683395	1101.417924752159	37.344773277736	632.120323547435	1309.569220402985	46.342596357848	625.527888807842	618.675255084332	165.059858116332	384.748689068718	675.879139968386	118.410553467791	305.848461277872	779.280082545060	125.142506471332	328.129851392281	856.468621189750	30.261019461075	303.337315881761	1064.346286813213	1082.688715067357	163.378125807869	1312.657020237758	1075.265544639599	221.128757991609	897.386117848972	1119.436097953368	767.958786083755	861.583809523775	859.053214628932	763.666858310778	
90	31.786214285714	843.093320377841	991.593396174925	500.595686987109	1031.859796299027	1414.869589334473	312.996739503021	1130.364833453126	1346.813133725597	478.750276361830	1043.745325898398	1429.465633405752	647.271695417373	1031.855971123906	1479.586330317715	465.061575800113	1069.783526991165	931.455354419265	624.186985381698	677.415825163219	604.802947551612	222.348481419530	1143.377610048781	750.361842261641	595.061495618676	1081.483608828647	630.050198624498	653.243870733715	1170.476907499048	591.434519064317	576.039183998959	1188.605627854916	500.131648940290	583.914085410642	1090.446853088561	724.626115974120	369.423407157658	995.950378092479	615.908146329672	301.340125384256	1077.286391637420	524.737976154605	357.461683483245	1062.844158747888	439.363770495484	352.615106678261	988.540845270916	387.325479608234	345.260350542930	844.613780359498	358.160897624705	296.108523431580	818.948102231808	230.978762326397	349.900578910133	1161.465557058152	408.528053704976	589.910702368706	1093.052702647947	302.079370079287	650.167796222665	1139.590475703943	208.575001549997	588.743479784784	1011.408599458638	43.527127938528	556.402852236944	1182.365578494224	98.978487396741	596.611618504061	1093.294765555789	37.300127169556	632.287154934007	1301.449552928401	46.182379984903	625.837509476801	623.341303803990	181.511962704991	386.164379468416	677.466654970497	131.452609798874	306.987098578692	781.435756277130	131.344081425192	329.088775735061	851.485300325069	29.413243181179	303.772611231741	1057.061597383748	1080.778343770320	169.150673438986	1306.029445240084	1059.371315017073	223.007923878814	904.464039325512	1118.528405220348	771.116816748770	874.700358240070	857.411156652022	764.714422077649	
91	31.797857142857	842.980094728676	993.452141994665	503.758960745462	1031.724980584765	1415.873973427857	314.786846824432	1131.481418641648	1347.672474281254	479.752407167184	1046.468660028238	1430.480609861106	648.895730700199	1033.016520137834	1480.668005826210	466.958757692335	1070.328734556787	932.533903084018	626.071404799276	710.465559296948	635.792589877474	235.298591812225	1141.773678093182	749.311100414222	598.396985921289	1077.680332583535	629.918372179182	655.165431909122	1166.433707785340	590.526886998286	578.030233164640	1183.375471941698	499.221751444582	585.352766791092	1095.178924231210	727.703711574757	371.719231517940	1004.900184354062	616.729879432535	303.034243119807	1088.970994702634	527.462324946009	359.363944600520	1075.818942294449	440.994072303115	354.186969052106	1000.151184114012	389.079312959815	346.727124735828	855.175810649039	364.395441150812	297.785266850459	826.063442955721	237.718580419280	351.082102755004	1155.526475645042	407.938615215025	591.134531318748	1086.474951420418	301.773982102754	651.010854807386	1132.331993817270	208.192546337369	589.283938970423	1003.283609822342	43.514378680786	556.542339546095	1174.198694504718	98.989350631343	596.983544783337	1085.131392334034	37.237035036472	632.433604164493	1293.317148574995	45.896326671147	626.098125276297	629.358700327285	197.236396089088	387.605110237965	680.592669083694	144.201809176926	308.200465355064	784.806554938317	137.890784306651	330.216320003990	848.117049774623	29.108758966892	304.352510251798	1049.854421841862	1079.014783739104	174.828155949220	1298.537050329165	1042.460581804574	224.799449367879	911.843300137829	1117.371948609967	774.314632022870	888.940568706395	855.598960328539	765.988906060321	
92	31.809500000000	842.662678889277	995.222224308028	506.749093968492	1031.334696011167	1416.754942985607	316.425378862227	1132.418679040402	1348.362908740913	480.540895315208	1049.144688235024	1431.315068252997	650.387048804438	1034.030031814712	1481.636141186400	468.735859590741	1070.656979559524	933.484395711070	627.794053926511	768.147683772562	688.851978603965	256.267925797967	1139.951576132459	748.308235080085	601.370345287734	1073.893726508323	629.865451967286	657.000790183020	1162.229450926506	589.655739525421	579.798588154726	1177.982504402329	498.343596131414	586.722957433180	1099.617306584630	731.050915425710	374.024257524579	1013.696454723681	617.992909072970	304.589307509571	1100.339310255748	530.768169299891	361.274826384953	1088.691695611771	443.261685737221	355.835178355745	1011.914662130893	391.289396661761	348.237609380482	866.155076264845	370.511046685940	299.399568380540	834.011993508970	244.359631909658	352.338324147426	1149.479408385596	407.369575826702	592.284049929708	1079.847485357211	301.475940770473	651.834343738323	1125.041327322111	207.825903656267	589.791312389664	995.123736925906	43.524592310040	556.675826718474	1166.011587471999	98.907677429387	597.284953185713	1076.937674116439	37.171163042889	632.570300510695	1285.175850570006	45.527006644937	626.317604866819	636.631409797680	211.671507892615	389.016376594659	685.323677887904	156.159107797353	309.453754922161	789.534217934880	144.559723357038	331.458592140487	846.837902216620	29.513308872099	305.101744517982	1042.775944308033	1077.371596042496	180.383356868629	1290.027470506753	1024.662186405138	226.489753965243	919.482615192282	1115.996747531357	777.462598792370	904.248590504450	853.714055660681	767.480762646132	
